# xmcd
#
# Track frame offsets: 
#        150
#        28667
#        46327
#        74393
#        88783
#        107627
#        128639
#        161941
#        189389
#        213512
#        232886
#        258759
#        281184
#
# Disc length: 3995 seconds
#
# Revision: 0
# Processed by: cddbd v1.5.2PL0 Copyright (c) Steve Scherf et al.
# Submitted via: ExactAudioCopy v1.0b3
#
DISCID=b70f990d
DTITLE=Mike Wheeler - Self Made Man
DYEAR=2012
DGENRE=Blues
TTITLE0=Here I Am
TTITLE1=Big Mistake
TTITLE2=Self Made Man
TTITLE3=I'm Missing You
TTITLE4=Join Hands
TTITLE5=Let Me Love You Baby
TTITLE6=You're Doing Wrong
TTITLE7=Walkin' Out The Door
TTITLE8=Get Your Mind Right
TTITLE9=I Don't Like It Like That
TTITLE10=Moving Forward
TTITLE11=Chicago Blues
TTITLE12=I'm Working
EXTD=
EXTT0=
EXTT1=
EXTT2=
EXTT3=
EXTT4=
EXTT5=
EXTT6=
EXTT7=
EXTT8=
EXTT9=
EXTT10=
EXTT11=
EXTT12=
PLAYORDER=
